<?xml version="1.0" standalone="no"?>
<!DOCTYPE svg PUBLIC "-//W3C//DTD SVG 20010904//EN"
 "http://www.w3.org/TR/2001/REC-SVG-20010904/DTD/svg10.dtd">
<svg version="1.0" xmlns="http://www.w3.org/2000/svg"
 width="3840.000000pt" height="2160.000000pt" viewBox="0 0 3840.000000 2160.000000"
 preserveAspectRatio="xMidYMid meet">

<g transform="translate(0.000000,2160.000000) scale(0.100000,-0.100000)"
fill="#000000" stroke="none">
<path d="M15235 20533 c-143 -9 -494 -48 -672 -74 -1396 -204 -2803 -691
-4118 -1424 -538 -300 -1389 -861 -1457 -962 -37 -54 -352 -686 -478 -958
-1447 -3123 -2427 -6657 -2759 -9950 -82 -810 -118 -1436 -137 -2350 l-6 -300
77 -115 c366 -545 966 -1154 1607 -1633 1316 -983 2934 -1584 4733 -1756 188
-18 320 -27 651 -46 l101 -6 304 368 c467 563 1159 1415 1261 1549 5 7 -35 25
-125 53 -989 317 -1845 750 -2592 1311 -464 348 -864 727 -1171 1110 -107 134
-206 271 -200 277 2 2 41 -20 87 -50 126 -81 453 -275 544 -322 44 -23 127
-68 185 -100 652 -361 1092 -567 1915 -897 1310 -525 2763 -914 4155 -1112
815 -116 1553 -168 2390 -168 1491 0 2837 185 4335 593 766 209 1229 371 2350
821 548 219 1181 533 1720 850 141 84 495 304 578 360 70 48 67 40 -36 -99
-253 -340 -676 -769 -1072 -1088 -830 -668 -1871 -1198 -2995 -1525 -41 -12
-78 -24 -82 -26 -8 -5 295 -376 1381 -1686 l155 -188 81 0 c108 0 363 17 628
41 2118 193 3977 974 5402 2269 373 339 748 762 1005 1132 l53 77 -6 443 c-36
2506 -470 5191 -1273 7878 -531 1775 -1294 3709 -1993 5053 l-113 217 -142
103 c-1417 1034 -3021 1762 -4666 2121 -557 121 -1142 201 -1565 212 l-210 6
-158 -183 c-87 -100 -154 -185 -150 -189 4 -4 87 -31 183 -60 1978 -601 3909
-1542 5230 -2548 133 -102 296 -234 370 -302 42 -38 35 -35 -130 51 -2003
1042 -3990 1700 -6145 2033 -948 147 -1760 211 -2765 220 -866 8 -1626 -34
-2510 -138 -113 -14 -241 -27 -285 -31 -44 -3 -152 -17 -240 -30 -88 -13 -268
-38 -400 -55 -1560 -204 -3204 -666 -4825 -1355 -418 -178 -1130 -510 -1430
-668 -156 -81 -153 -73 30 81 322 270 897 671 1370 955 655 393 1450 792 2207
1108 704 294 1487 571 2208 780 99 28 182 53 184 55 2 2 -49 64 -113 139
l-117 135 -147 -2 c-81 -1 -169 -3 -197 -5z m-64 -8673 c412 -42 824 -204
1161 -458 126 -94 324 -285 423 -407 170 -210 323 -478 418 -736 154 -421 201
-918 131 -1393 -126 -852 -639 -1579 -1369 -1936 -550 -270 -1197 -304 -1765
-93 -785 291 -1380 1007 -1564 1878 -73 349 -75 769 -5 1120 194 977 895 1746
1794 1969 89 22 247 49 345 59 80 8 335 6 431 -3z m8602 -5 c570 -67 1098
-351 1486 -800 711 -822 853 -2030 355 -3016 -249 -493 -621 -868 -1095 -1103
-340 -169 -694 -246 -1078 -233 -241 8 -429 42 -656 118 -122 42 -390 173
-500 246 -573 380 -970 974 -1108 1663 -42 207 -52 319 -51 570 0 243 12 367
55 570 142 668 526 1251 1064 1612 300 200 681 341 1026 377 136 14 364 12
502 -4z"/>
</g>
</svg>
